<svg xmlns="http://www.w3.org/2000/svg" viewBox="0 0 562.57 145.86"><defs><style>.cls-1{fill:#58595b;}.cls-2{fill:#99d7dc;}.cls-3{fill:#8ab9e3;}.cls-4{fill:#8697cc;}.cls-5{fill:#8aa9d8;}.cls-6{fill:#99d7db;}.cls-7{fill:#8596cc;}.cls-8{fill:#94d6de;}.cls-9{fill:#8284c0;}.cls-10{fill:#717abb;}.cls-11{fill:#9d73b2;}.cls-12{fill:#ee6088;}.cls-13{fill:#8c77b6;}.cls-14{fill:#b66ead;}.cls-15{fill:#ce69a5;}.cls-16{fill:#f05e82;}.cls-17{fill:#8bacda;}.cls-18{fill:#cf69a3;}</style></defs><g id="Layer_2" data-name="Layer 2"><g id="Layer_1-2" data-name="Layer 1"><path class="cls-1" d="M51.08,144.85c-12.49,0-22.83-5.26-28.74-14.95v12.65H0V19.21H22.34V66.67C28.25,57,38.76,51.89,51.08,51.89c24.63-.49,43.52,20.7,43,46.48C94.6,124.15,75.71,145.18,51.08,144.85ZM65.69,79.16a23.9,23.9,0,0,0-18.23-7.72c-14.61,0-25,10.67-25,26.93s10.35,26.93,25,26.93c14.95,0,25.29-11.66,25.29-26.93C72.75,90.65,70.46,84.25,65.69,79.16Z"/><path class="cls-1" d="M122,142.55H99.69V19.21H122Z"/><path class="cls-1" d="M143.21,15.76c7.88,0,14,5.92,14,13.31,0,7.71-5.91,13.3-14,13.3s-14-5.59-14-13.3C129.25,21.68,135.16,15.76,143.21,15.76Zm11.17,126.79H132V54.19h22.34Z"/><path class="cls-1" d="M174.25,114.3C178.85,121.53,188.37,127,200,127c11.17,0,19.55-3.45,19.55-8.71s-3.62-7.39-17.25-10.51l-13-3c-18.56-4.11-27.59-12-27.59-25.13,0-16.75,16.09-27.76,38.59-27.76a50,50,0,0,1,23.82,5.59c7.06,3.77,12.31,8.21,15.6,13.63L223,80.63c-4.11-6.4-13.47-11-23.16-11-9.85,0-16.92,3.45-16.92,8.7s3.62,7.23,17.25,10.35l13,3c18.56,4.1,27.59,12.15,27.59,25.45,0,16.75-17.57,27.76-41.22,27.76a53,53,0,0,1-25.78-6.24c-7.56-4.11-13-8.87-16.43-14.62Z"/><path class="cls-1" d="M255.05,114.3c4.6,7.23,14.13,12.65,25.79,12.65,11.16,0,19.54-3.45,19.54-8.71s-3.61-7.39-17.25-10.51l-13-3c-18.56-4.11-27.59-12-27.59-25.13,0-16.75,16.09-27.76,38.59-27.76A49.92,49.92,0,0,1,305,57.48c7.06,3.77,12.31,8.21,15.6,13.63l-16.75,9.52c-4.11-6.4-13.47-11-23.16-11-9.85,0-16.91,3.45-16.91,8.7s3.61,7.23,17.24,10.35l13,3c18.56,4.1,27.59,12.15,27.59,25.45,0,16.75-17.57,27.76-41.22,27.76a53,53,0,0,1-25.78-6.24c-7.56-4.11-13-8.87-16.42-14.62Z"/><rect class="cls-2" x="335.07" y="107.8" width="36" height="36"/><rect class="cls-3" x="335.07" y="71.96" width="36" height="36"/><rect class="cls-4" x="335.07" y="36.12" width="36" height="36"/><rect class="cls-5" x="370.76" width="36" height="36"/><path class="cls-6" d="M406.58,0h21.8a14.2,14.2,0,0,1,14.2,14.2V36a0,0,0,0,1,0,0h-36a0,0,0,0,1,0,0V0A0,0,0,0,1,406.58,0Z"/><rect class="cls-7" x="406.58" y="107.8" width="36" height="36"/><rect class="cls-8" x="370.76" y="71.96" width="36" height="36"/><path class="cls-9" d="M351.35,0h19.72a0,0,0,0,1,0,0V36a0,0,0,0,1,0,0h-36a0,0,0,0,1,0,0V16.28A16.28,16.28,0,0,1,351.35,0Z"/><rect class="cls-10" x="455.81" y="109.86" width="36" height="36"/><rect class="cls-11" x="455.81" y="56.45" width="35.69" height="53.57"/><path class="cls-12" d="M526.41,39.18h36V16.67A13.49,13.49,0,0,0,548.92,3.18H526.41Z"/><path class="cls-13" d="M497.73,39.18h29v-36H495.61a4.89,4.89,0,0,0-4.89,4.88V32.17A7,7,0,0,0,497.73,39.18Z"/><rect class="cls-14" x="526.57" y="38.45" width="36" height="36"/><rect class="cls-15" x="491.5" y="74.02" width="36" height="36"/><path class="cls-16" d="M526.57,74h36a0,0,0,0,1,0,0V98.37A11.65,11.65,0,0,1,550.92,110H526.57a0,0,0,0,1,0,0V74a0,0,0,0,1,0,0Z"/><path class="cls-17" d="M406.58,35.81h36a0,0,0,0,1,0,0V50.75a21.06,21.06,0,0,1-21.06,21.06H406.58a0,0,0,0,1,0,0v-36A0,0,0,0,1,406.58,35.81Z"/><path class="cls-18" d="M461.44,38.18h24.73a5.63,5.63,0,0,1,5.63,5.63V74.18a0,0,0,0,1,0,0h-36a0,0,0,0,1,0,0V43.81A5.63,5.63,0,0,1,461.44,38.18Z"/></g></g></svg>